<svg xmlns="http://www.w3.org/2000/svg" viewBox="423.090176 308.811776 679.9359999999999 350.208" style="max-height: 500px" width="679.9359999999999" height="350.208"><path d="M623 314q2.724.517 5.453 1.008c20.113 3.81 38.564 10.224 56.547 19.992l3.531 1.86c8.793 4.792 16.651 10.509 24.534 16.657a188 188 0 0 0 4.19 3.115l2.222 1.61 2.041 1.457L723 361v2l1.781.77c6.991 3.877 11.273 11.95 14.469 18.98 2.323 10.067.336 18.704-4.57 27.66-6.65 10.591-15.801 18.63-27.68 22.59l-2 2-1-1-2 2-3-2v2h-4l-2 1-2-2-2.75.125c-4.178-.16-5.854-1.748-9.25-4.125a89 89 0 0 0-4.312-1.625C671 428 671 428 670 426c-7.126-6.177-15.834-11.706-24.687-15-2.313-1-2.313-1-3.313-3l-2.312.188c-3.27-.229-3.468-.968-5.688-3.188-3.108-.727-3.108-.727-6-1v-2l-2.047.035c-.892.01-1.784.018-2.703.027l-2.672.036c-2.38-.09-4.297-.457-6.578-1.098-9.897-1.59-19.376-1.354-29.223.496-2.492.452-4.946.757-7.465 1.004L574 403l-1 2-7 1-1 2-3 1-2 2c-1.65.707-3.316 1.38-5 2v2l-1.71.246c-3.01.991-4.625 2.645-6.915 4.817C542.209 424 542.209 424 540 424l-.773 1.73c-1.362 2.519-2.977 4.42-4.852 6.582-14.445 17.86-20.003 40.257-17.914 62.965 3.192 22.043 12.327 41.805 29.601 56.348 15.749 11.618 34.487 17.024 54 14.75 15.596-2.64 26.487-9.777 36.938-21.375l1-2h2v-2h2v-2c1.61-1.55 1.61-1.55 3.75-3.312 3.16-2.681 5.755-5.362 8.25-8.688 2.124-2.379 2.866-2.955 6-4v-2c1.574-1.55 1.574-1.55 3.688-3.312 4.956-4.222 9.26-8.59 13.312-13.688 2.425-2.646 3.562-3.854 7-5v-2a140 140 0 0 1 5-5l2.625-2.687C694 487 694 487 697 485l2-3c2.313-1.059 2.313-1.059 5-2l2.438-1.035c12.253-4.913 23.965-4.885 36.562-.965 13.044 5.773 23.7 15.227 29.027 28.574 3.332 10.027 2.349 18.818-2.027 28.426-5.688 9.205-13.194 16.557-20.875 24.063l-3.453 3.412q-3.132 3.095-6.277 6.178A616 616 0 0 0 735 573l-2.257 2.253q-3.546 3.553-7.07 7.125-3.306 3.345-6.621 6.68a1665 1665 0 0 0-3.495 3.536q-2.528 2.562-5.069 5.113l-1.578 1.61c-1.266 1.266-2.584 2.48-3.91 3.683h-2l-.687 1.672c-1.7 3.015-3.861 5.14-6.313 7.578l-2.687 2.703C691 617 691 617 689 617l-.766 1.785c-1.379 2.475-2.82 3.837-4.984 5.653l-2.184 1.84L679 628l-2.812 2.5c-5.202 4.29-11.05 8.465-17.47 10.582-2.857.61-2.857.61-3.718 2.918-2.562.625-2.562.625-5 1v2l-8 1v2l-1.828.402-2.422.535-2.39.528a97 97 0 0 0-4.407 1.101C629 653 629 653 625 653v2l-2.633.148-3.492.227c-1.137.07-2.274.14-3.445.21-3.384.41-6.246 1.225-9.43 2.415v-2l-3.55.473-4.763.59-2.322.314c-6.275.755-12.103.328-18.365-.377q-2.872-.258-5.746-.5l-5.692-.5-2.927-.25-2.819-.25-2.517-.219c-2.17-.265-4.194-.7-6.299-1.281v-2h-1.934C541 652 541 652 538 650c-1.661-.36-3.329-.69-5-1a251 251 0 0 1-6-2v-2l-1.793-.586c-4.122-1.358-8.202-2.735-12.207-4.414v-2l-2.437-.625c-3.954-1.526-6.989-3.577-10.415-6.035-2.116-1.32-3.76-1.746-6.148-2.34a283 283 0 0 1-5-5c-2.166-1.295-2.166-1.295-4-2v-2l-3-1c-1.375-1.25-1.375-1.25-3-3l-2.562-2.437c-2.09-2.198-3.31-3.796-4.438-6.563h-2v-2l-3-1-1-2h-3v-3l-3-1-1-5h-2l-1-3-1.937-.937c-2.565-1.322-2.956-2.455-4.063-5.063l-2-3v-2a100 100 0 0 0-3-4c-4-6-4-6-4-9a77 77 0 0 0-2.312-4.812l-1.383-2.711a169 169 0 0 0-2.993-5.414c-1.939-4.526-2.579-9.215-3.312-14.063l-3-1 2-1v-2l-3-1-1-5h2l-1.562-2.312L425 524l1-3c-.275-2.202-.275-2.202-.875-4.5l-.555-2.344c-.46-1.737-1.002-3.452-1.57-5.156h2v-3l-2-1v-38h2v-2.957C425 450 425 450 427 447l-1-2h2l.184-2.117.253-2.758.247-2.742C429 435 429 435 430 433h2v-6h2a438 438 0 0 0 2-13h2q1.722-3.404 3.438-6.812l.986-1.948c1.368-2.723 2.61-5.344 3.576-8.24h2c1.075-2.652 2.095-5.284 3-8h2l1-4h2l.824-1.723C460 377.127 463.903 371.695 469 367c2.368-2.3 4.158-4.236 6-7 3.556-3 3.556-3 6-3l.188-1.812c1.15-3.099 2.918-3.741 5.812-5.188l3-1v-2c2.02-1.48 2.02-1.48 4.813-3.187 4.443-2.728 4.443-2.728 8.804-5.583 7.126-4.797 14.566-8.203 22.484-11.445a225 225 0 0 0 4.934-2.125c7.259-3.058 14.7-4.981 22.34-6.848l3.078-.758c12.819-3.016 25.668-4.363 38.801-4.742a596 596 0 0 0 6.225-.23c7.497-.263 14.241.126 21.521 1.918" fill="currentColor"/><path d="m1047 358 2.445 2.04c4.181 3.539 4.181 3.539 5.555 4.96v2h2c1.508 1.46 1.508 1.46 3.125 3.375l1.633 1.898C1063 374 1063 374 1063 376l3 1c1.36 1.496 1.36 1.496 2.75 3.438l1.59 2.214L1072 385l1.629 2.191C1087.054 405.6 1102 432.607 1102 456h2c.773 10.776 1.24 21.508 1.25 32.313l.002 2.172c-.017 11.416-.674 22.367-3.252 33.515l-.504 2.297c-5.497 24.629-16.022 46.12-31.3 66.075-1.14 1.552-2.178 3.18-3.208 4.808-2.08 2.95-4.131 4.642-6.988 6.82a395 395 0 0 0-5.812 5.875c-4.033 4.118-8.054 7.815-12.86 11.04L1040 622v2l-1.937.313L1036 625l-1 3h-3a375 375 0 0 0-6 4h-2l-1 2a175 175 0 0 1-5 4l-1-1-2 3h-2l-1 2-3.25.438c-3.745.561-5.734 1.344-8.75 3.562l-1 2-1.625-.562c-2.995-.552-5.412-.044-8.375.562l-1 3-5-1-1 3a88 88 0 0 1-5 1l-1-1-1 2-1.75-.625c-2.77-.462-3.896.196-6.25 1.625l-1-1-2.812.938c-4.462 1.487-6.616 2.09-11.188 1.062h-3v2l-12-2v2q-2.844.039-5.687.063l-3.2.035c-2.848-.09-5.339-.498-8.113-1.098-3.707-.128-6.473-.176-10 1v-2l-3 1a202 202 0 0 1-7-1h-3v-2l-2.937.563L891 656l-1-1-3 1v-2l-7 1v-3l-3.027-.148-3.91-.227c-1.288-.07-2.576-.14-3.903-.21-1.043-.138-2.086-.274-3.16-.415l-1-2a129 129 0 0 0-6-1l-2-1-1 2-.687-1.875c-1.736-2.81-3.19-3.181-6.313-4.125q-2.495-.524-5-1c-3.75-.875-3.75-.875-7-2l-1-3a70 70 0 0 0-4-1l-1-2-3-.937-3-1.063-1-3-1.875.625L820 630l-2-2v-3l-2.375-.25C813 624 813 624 811.813 622.063L811 620l-2-2h-2q-1.474-4.092-2.937-8.187l-.842-2.33c-2.588-7.264-3.715-12.002-1.221-19.483l-2-1h2l3-12h2l.938-2.875C809 569 809 569 810 567h2v-2l2-1 1-3h2v-2c4.47-4 4.47-4 7-4v-2c13.631-6.794 26.259-10.757 41.243-6.05 5.07 1.931 9.682 4.674 14.382 7.362 23.757 13.225 48.106 19.63 75.188 13.125 10.635-3.214 21.27-8.21 29.804-15.406C986 551 986 551 988 551v-2h2l1-4h3v-2l2.25-2.187c3.051-3.121 4.72-5.978 6.75-9.813h2l1-6h2v-5l2-1c.685-1.888.685-1.888 1.125-4.062l.508-2.223L1012 511h2l.375-3c.577-4.089 1.575-8.009 2.625-12l-2-1 .49-1.722c.876-3.91.695-7.849.697-11.84l.038-2.616.005-2.513.013-2.288c-.126-2.335-.126-2.335-2.243-5.021h2l-1.562-2.812C1013 463 1013 463 1014 460l-2-1a76 76 0 0 1-1-5c-.776-3.075-.776-3.075-3-5l-1-3-2-1.875c-2.27-2.413-2.64-3.886-3-7.125l-3-1v-2l-2-3v-2h-2a263 263 0 0 1-4-5l-2-1v-2l-3 1-.625-2.312c-1.796-3.51-3.806-4.214-7.375-5.688v-2l-1.812.688L974 413c-1.75-1.312-1.75-1.312-3-3v-2h-6v-3l-3 1-2-1v-2l-6 1-1-2c-7.885-2.169-18.895-4.069-26.66-.922C924 402 924 402 921 401c-13.005 2.465-13.005 2.465-23 10-1.324.367-2.66.698-4 1-9.237 5.579-16.755 14.465-24.316 22.05l-4.401 4.396a6429 6429 0 0 0-9.16 9.17 5584 5584 0 0 1-11.773 11.766q-4.533 4.524-9.056 9.057a2972 2972 0 0 1-4.346 4.34 2118 2118 0 0 0-6.032 6.046l-1.828 1.815c-3.071 2.68-3.071 2.68-4.088 6.36l-1.937.313L815 488l-1 3h-4l-3 1h-3v3l-3-1c-2.167.875-2.167.875-4 2v-2l-2.125 1c-3.135 1.09-5.58 1.153-8.875 1v-2h-2l-1 2-3.187-1.5c-2.453-1.068-3.776-1.5-6.5-1.5-3.033 0-3.997-1.118-6.313-3l-2.562-1c-3.837-1.574-5.835-4.407-8.25-7.687a369 369 0 0 0-4.91-6.543l-1.653-2.145-1.523-1.96C747 469 747 469 747 467l-3-1-.437-2.812c-.484-3.195-.484-3.195-1.563-6.188h2a853 853 0 0 0-.437-4.312l-.247-2.426c-.269-2.423-.269-2.423-1.316-5.262l2-1c.502-1.957.502-1.957.813-4.25.915-4.62 2.612-6.622 6.187-9.75l1.125-2.25C753 426 753 426 756 425v-2c2.436-2.575 4.995-4.995 7.563-7.437 2.553-2.527 2.553-2.527 4.5-5.75 1.979-2.873 2.92-3.405 5.937-4.813l1-2c1.255-2.51 2.5-2.871 5-4l1-2h2v-2l2.375-1.875c2.681-1.87 2.681-1.87 3.688-4.25 1.2-2.402 2.495-2.898 4.937-3.875v-2l3-1 1-3h2v-2a100 100 0 0 1 4-3c2.095-1.934 3.387-3.58 5-6a180 180 0 0 1 4-4l2.25-2.312c2.2-2.15 4.428-4.176 6.75-6.188 5.713-4.934 5.713-4.934 10.563-10.687 1.635-2.063 3.098-2.681 5.437-3.813l2-3a139 139 0 0 1 5-2 361 361 0 0 0 5.212-3.02C913.368 295.676 993.4 312.132 1047 358" fill="currentColor"/><path d="M762.656 491.395c6.847 7.611 12.215 17.82 11.684 28.355-2.583 17.1-13.378 27.746-25.215 39.313l-3.453 3.412q-3.132 3.095-6.277 6.178A616 616 0 0 0 735 573l-2.257 2.253q-3.546 3.553-7.07 7.125-3.306 3.345-6.621 6.68a1665 1665 0 0 0-3.495 3.536q-2.528 2.562-5.069 5.113l-1.578 1.61c-1.266 1.266-2.584 2.48-3.91 3.683h-2l-.687 1.672c-1.7 3.015-3.861 5.14-6.313 7.578l-2.687 2.703C691 617 691 617 689 617l-.766 1.785c-1.379 2.475-2.82 3.837-4.984 5.653l-2.184 1.84L679 628l-2.812 2.5c-5.202 4.29-11.05 8.465-17.47 10.582-2.857.61-2.857.61-3.718 2.918-2.562.625-2.562.625-5 1v2l-8 1v2l-2.191-.59c-3.145-.46-4.78-.027-7.746 1.028-3.837 1.261-6.984 1.884-11.063 1.562l1-2q2.988-.57 6-1l2-1c-1.858-1.972-1.858-1.972-3.687-3.187-1.313-1.813-1.313-1.813-1-5.5L626 636h2l-2-2v-6h-2l.938-2.312A111 111 0 0 0 627 620l-2-2c.375-3.125.375-3.125 1-6h-2l-1-2 5-2v-2l-2-1c.547-3.375 1.055-5.082 3-8v-2l-2-1h2v-5l3 1v2h-2c1.309 3.122 1.309 3.122 4 5l-1-4 3-2-2-2c.033-2.729.564-5.297 1-8h2v-3l-2 1 1-5 3-1-1-3-1-3c.926-1.754.926-1.754 2.313-3.562l1.363-1.817C642 560 642 560 644 558c-.357-1.931-.357-1.931-1-4v-4l-4 1-1-5 3-1v-2a134 134 0 0 1 5-5q1.67-1.662 3.332-3.332L659 525l-2-2h3v-2c1.574-1.55 1.574-1.55 3.688-3.312 4.956-4.222 9.26-8.59 13.312-13.688 2.425-2.646 3.562-3.854 7-5v-2a140 140 0 0 1 5-5l2.625-2.687C694 487 694 487 697 485l2-3c2.3-1.059 2.3-1.059 5-2l2.543-1.035c20.367-7.912 40.494-2.754 56.113 12.43" fill="currentColor"/><path d="M522 333h2v2l2 2-3 7h-2v-2l-4 1v2c0 2.025-.595 4.024-1 6l-3-2v14h-3l1 3-2 3 2 1 2-2 3 3-4 3 .688 2.063c.423 3.985-.972 6.373-2.688 9.937-1.158 2.947-1.158 2.947-1 6l-1 3 2 1-3 1 1 3 2-1c.41 3.592.228 4.71-2.062 7.625L506 409l1 3h-2l-1 3-4-2q-.29 2.437-.562 4.875l-.317 2.742c-.318 2.4-.318 2.4.879 4.383l6-2v3l-1.812.438c-1.75.45-3.475.99-5.188 1.562l2 4h-2l-1 4-6 1 1.188 2.25c.812 2.75.812 2.75-.438 5.063C491 446 491 446 489 446c-1.245 2.49-.777 3.41 0 6l-4 1v3l2-2 4 7h-5l-1 2 6 1-1 5-1-2h-2c-.981 3.053-.981 4.947 0 8h-2v3l3 1-1 4 2 1-1.062 3.375c-1.31 3.428-1.31 3.428.062 5.625l-4 1v2l6 2v2l-4 2 2 3-5 4c-3.875-1.875-3.875-1.875-5-3l-1 5 6-1c1.125 2.25 1.125 2.25 2 5-.875 2.313-.875 2.313-2 4l5 3-2 2-1 2h-3l1 3 3-2 1 5-6 1v2l3-1v2h-3l2 1c-.352 5.461-.352 5.461-1 8-2.062 1.5-2.062 1.5-4 2l1 2-3 3 2 1v2l1 2-3 1v2h2l-1 9-3 1 1.5 1.313C477 573 477 573 477 576h2a259 259 0 0 1 3 5c1.608 2.056 3.296 4.02 5 6l-2 2 2 2-3 1 2 2-2 2 3 3-1 1 4 2v2l-1.937.375L486 605l-1 2h-2l-1 2 2 1-3 2v2c-3.362-1.44-5.592-3.248-8-6v-2h-2c-1.625-1.375-1.625-1.375-3-3v-2l-5 1v-3l-3-1-1-5h-2l-1-3-1.937-.937c-2.565-1.322-2.956-2.455-4.063-5.063l-2-3v-2a100 100 0 0 0-3-4c-4-6-4-6-4-9a77 77 0 0 0-2.312-4.812l-1.383-2.711a169 169 0 0 0-2.993-5.414c-1.939-4.526-2.579-9.215-3.312-14.063l-3-1 2-1v-2l-3-1-1-5h2l-1.562-2.312L425 524l1-3c-.275-2.202-.275-2.202-.875-4.5l-.555-2.344c-.46-1.737-1.002-3.452-1.57-5.156h2v-3l-2-1v-38h2v-2.957C425 450 425 450 427 447l-1-2h2l.184-2.117.253-2.758.247-2.742C429 435 429 435 430 433h2v-6h2a438 438 0 0 0 2-13h2q1.722-3.404 3.438-6.812l.986-1.948c1.368-2.723 2.61-5.344 3.576-8.24h2c1.075-2.652 2.095-5.284 3-8h2l1-4h2l.824-1.723C460 377.127 463.903 371.695 469 367c2.368-2.3 4.158-4.236 6-7 5.191-3.837 5.191-3.837 7.977-4.398 2.632-.783 3.697-2.076 5.523-4.102 3.057-3.391 3.057-3.391 5.656-4.031L496 347l1-3c6.835-5.059 13.445-8.19 22-8l3-1z" fill="currentColor"/><path d="M1045 360v5h2l1-4 7 4v2h2c1.508 1.46 1.508 1.46 3.125 3.375l1.633 1.898C1063 374 1063 374 1063 376l3 1c1.36 1.496 1.36 1.496 2.75 3.438l1.59 2.214L1072 385l1.629 2.191C1087.054 405.6 1102 432.607 1102 456h2c.773 10.776 1.24 21.508 1.25 32.313l.002 2.172c-.017 11.416-.674 22.367-3.252 33.515l-.504 2.297c-5.497 24.629-16.022 46.12-31.3 66.075-1.14 1.552-2.178 3.18-3.208 4.808-2.08 2.951-4.128 4.642-6.988 6.82-2.557 2.423-4.993 4.968-7.451 7.49-9.925 10.078-9.925 10.078-17.549 10.51h-5l1-6h-2c1.12-3.361 2.497-4.575 5-7l1-2h2a159 159 0 0 0 5-6l-2-4-3 1-1-4h3l1-2 1-1.875c1.279-2.717 2-5.117 2-8.125l-1.25-3.312c-.75-3.688-.75-3.688 1.063-6.5L1045 570c1.15-1.925 1.15-1.925 1-4l1-3c-.278-2.34-.605-4.676-1-7 4 0 4 0 7 2l-.5-2.312C1052 553 1052 553 1052 550l3-1-.937-2.062c-1.54-4.258-2.063-8.421-2.063-12.938h2v-2h2v-3l-2-1 2-6-1-1-1-2 2-3c1.1-3.098.833-4.876 0-8 1-2 1-2 2-3v-3c.31-1.671.64-3.339 1-5l-3-1 1-2.375c1.119-2.468 1.119-2.468 1-4.625l-2-3 3-2-1.062-1.625c-1.23-3.116-.548-5.123.062-8.375a140 140 0 0 0-1-4l.563-2.062L1058 466l-2-3c.375-2.437.375-2.437 1-5v-4l2-2-.937-1.875L1056 446l1-3-2-3c.313-2 .313-2 1-4 1.253-2.813 1.253-2.813.438-4.937-.566-2.667.18-3.786 1.562-6.063l-3-2 2-6-1-1q-.509-3.499-1-7l-1-2h2l-1.062-2.687c-1.004-3.546-.687-4.817.062-8.313.068-4.757-.408-7.307-3.562-11l-2.438-2 3-3-2-4-3 1-.332-1.934-.48-2.503-.458-2.497L1045 368l-3-1c-1.687-2.062-1.687-2.062-3-4 4.875-3 4.875-3 6-3m2 9 1 2Zm12 103 1 2 1-2zm0 6 1 3 2-1-1-2zm-5 59-1 2h2zm0 17 1 2Z" fill="currentColor"/><path d="m845 338 2 3-2 2 1 2-2 1q.173 2.22.375 4.438l.21 2.496L845 355l2 1-4 4h2v4l-2 1 1 2h-4v2h4l2 2c-.253 3.797-2.279 5.534-5 8l-1 1 5-1v3l-1.375 1.188c-2.19 2.441-2.478 4.803-3.098 7.972C840 393 840 393 838 395l2 7c-2 2-2 2-4 3l2 2 2 3-5 1 1 1c1.066 3.091.873 4.897 0 8v4l-1.937-1c-1.83-1.073-1.83-1.073-3.063-1l1 1 2 3-6 6 3 1h-4l3 2c.438 2.938.438 2.938 0 6-2 1.75-2 1.75-4 3v2l2 1a125 125 0 0 1-4 6h-2v2h-2l2 2c2 3 2 3 1.723 4.902l-.66 2.036c-1.03 3.197-.899 4.846-.063 8.062-.837 3.407-1.891 6.674-3 10h-2l1 5-1.937.313L815 488l-1 3h-4l-3 1h-3v3l-3-1c-2.167.875-2.167.875-4 2v-2l-2.125 1c-3.135 1.09-5.58 1.153-8.875 1v-2h-2l-1 2-3.187-1.5c-2.453-1.068-3.776-1.5-6.5-1.5-3.033 0-3.997-1.118-6.313-3l-2.562-1c-3.837-1.574-5.835-4.407-8.25-7.687a369 369 0 0 0-4.91-6.543l-1.653-2.145-1.523-1.96C747 469 747 469 747 467l-3-1-.437-2.812c-.484-3.195-.484-3.195-1.563-6.188h2a853 853 0 0 0-.437-4.312l-.247-2.426c-.269-2.423-.269-2.423-1.316-5.262l2-1c.502-1.957.502-1.957.813-4.25.915-4.62 2.612-6.622 6.187-9.75l1.125-2.25C753 426 753 426 756 425v-2c2.436-2.575 4.995-4.995 7.563-7.437 2.553-2.527 2.553-2.527 4.5-5.75 1.979-2.873 2.92-3.405 5.937-4.813l1-2c1.255-2.51 2.5-2.871 5-4l1-2h2v-2l2.375-1.875c2.681-1.87 2.681-1.87 3.688-4.25 1.2-2.402 2.495-2.898 4.937-3.875v-2l3-1 1-3h2v-2a100 100 0 0 1 4-3c2.095-1.934 3.387-3.58 5-6a180 180 0 0 1 4-4l2.25-2.312c2.2-2.15 4.428-4.176 6.75-6.188 5.747-4.916 5.747-4.916 10.5-10.75 2.001-2.335 3.515-2.195 6.5-2.75 2.04-1.27 4.05-2.594 6-4m-10 69-1 3h2z" fill="currentColor"/><path d="m929.375 312.75 3.048-.029 2.85.013 2.545.007C940 313 940 313 943 315l-26 1c2.025 3.217 2.025 3.217 5 5l-3 6 4 3-3 2 .563 2.125c.491 3.23.061 5.685-.563 8.875-.332 3.003-.332 3.003 1.5 4.688L923 349l-2 1 1 5h-2l.75 3.188C921 362 921 362 919 364.75l-2 2.25 1 3c-.937 2.688-.937 2.688-2 5h5l1 3c-2.812 2.063-2.812 2.063-6 4l-3-1v2l2 1-3 2 1 6-2 1-1 3 2 1-3 1v-4h-2l-2 4h-2l-1 3-5 1-1 5-5 1-1 4 4-3 2 1-1.86 1.43c-8.857 7.008-16.706 14.88-24.652 22.886q-2.195 2.202-4.392 4.401-5.729 5.743-11.446 11.496c-3.905 3.926-7.816 7.845-11.726 11.766A23772 23772 0 0 0 819 485l-1-3h2l.184-1.828.254-2.422c.08-.789.162-1.578.246-2.39.316-2.36.316-2.36.879-4.516.532-2.244.135-3.674-.563-5.844h2l-1-3v-3c-.95-2.15-.95-2.15-2-4h2v-2l3-2c1.409-1.817 1.409-1.817 2-4-.783-2.235-.783-2.235-2-4l2.063-1.75L829 439c-.167-2.083-.167-2.083-1-4 0-3.676.423-4.423 3-7l2-3-3-1 1-5 1 3c2.015.733 2.015.733 4 1l-.437-3.937-.247-2.215c-.135-1.86-.135-1.86-1.316-2.848 1-3 1-3 3.063-4.187L839 409l-3-2 1-2.875c1.058-3.306 1.232-4.303.313-7.562L837 394a101 101 0 0 1 3-3q1.017-3.495 2-7c1.625-2.437 1.625-2.437 3-4l-6 2v-3l2-1 2-3 2-1-1-4-2 3v-4h-2v-2l3-1-1-4h3l-3-3 1.563-1.25L845 356c-.204-1.906-.204-1.906-1-4-1.035-3.966-1.198-5.534.438-9.375.515-.866 1.03-1.733 1.562-2.625-3.908 0-5.116 1.506-8 4l-2-1c2.775-3.906 4.623-5.287 9-7a361 361 0 0 0 5.212-3.02c24.213-14.302 51.254-20.029 79.163-20.23M835 407l1 3-2-1z" fill="currentColor"/><path d="m649 322 6 2v2l1.95-.73c4.565-.404 7.796 1.48 11.862 3.418l2.33 1.068a268 268 0 0 1 11.12 5.451c2.226 1.133 3.81 1.806 6.289 2.258 3.719.812 6.55 2.97 9.636 5.098l2.004 1.358c4.722 3.236 9.234 6.674 13.645 10.325 2.038 1.652 4.124 3.15 6.289 4.629L723 361v2c.882.38.882.38 1.781.77 6.991 3.877 11.273 11.95 14.469 18.98 2.323 10.067.336 18.704-4.57 27.66-6.65 10.591-15.801 18.63-27.68 22.59l-2 2-1-1-2 2-3-2v2h-4l-2 1-2-2-2.75.125c-4.178-.16-5.854-1.748-9.25-4.125a89 89 0 0 0-4.312-1.625C671 428 671 428 670 426c-6.543-5.672-14.233-10.223-22-14l3-1 1-8h-2l1-6h-3c.375-2.437.375-2.437 1-5l2-1 1 1c1.77-5.31-.123-9.92-2-15l-2-3 2-2-3-4 2-3h1l1-6h-3v-3c-.833-2.167-.833-2.167-3-3l3-2 3 3 1-4-3-1c0-8 0-8 1-10q.53-1.993 1-4l2 2 1-4c3 1 3 1 4 3l5-7-1 1-2-1-1 3h-5v-2h-2l-1 2-1-2 1-3c-.88-2.657-.88-2.657-2-5m5 4-1 2h2z" fill="currentColor"/><path d="M751.71 484.598c2.248 1.482 2.248 1.482 4.798 2.308 7.767 3.409 12.443 12.09 15.617 19.551 3.384 9.835 2.147 19.163-2.125 28.543-5.688 9.205-13.194 16.557-20.875 24.063l-3.453 3.412q-3.132 3.095-6.277 6.178A616 616 0 0 0 735 573l-2.257 2.253q-3.546 3.553-7.07 7.125-3.306 3.345-6.621 6.68a1665 1665 0 0 0-3.495 3.536q-2.528 2.562-5.069 5.113l-1.578 1.61c-1.266 1.266-2.584 2.48-3.91 3.683h-2l-.742 1.734c-1.47 2.646-3.211 4.415-5.383 6.516l-2.195 2.14L693 615l-2-3 1-3 2-1-1-2 4-3-4-5 3-3c-1.925-1.15-1.925-1.15-4-1l-2-4 2.063-1.687L694 586c-.165-2.575-.165-2.575-1-5v-3l3-1-3-3 3-5-3-3 1-1.812c1.208-2.242 1.208-2.242 1-5.188l-2-3 3-3-1.125-2.312L694 548l2-3-1-2 2-1c.508-2.482.508-2.482.688-5.375l.261-2.96c.201-2.77.201-2.77-.949-5.665v-1l-.625-1.875C696 523 696 523 698 520v-4h-2l1-2-1-3 3-1v-5l3 1 1-4h3l-3-4 2-2c1.044-3.133.934-3.99 0-7h2c.678-2.9.678-2.9 1-6l-2-2c15.207-6.858 31.764-5.568 45.71 3.598" fill="currentColor"/><path d="M844 548v3h3l-1-2c3.215-1.607 6.436-1.057 10-1l1 3 7 1 1 3q1.47 1.53 3 3l2 3-1 2h-2c1.15 1.298 1.15 1.298 4 2l1 3 1 2-1 1 1 2a101 101 0 0 1-3 6l2 2h3c2 2 2 2 2 5l-1 2h3l1 2-4 2 5 1-.25 2.25c.323 3.558 1.628 4.446 4.25 6.75l1 2 2-1c.75 2.25.75 2.25 1 5-1.937 2.313-1.937 2.313-4 4h2l-.5 1.75c-.645 2.517-.645 2.517-.5 6.25l-1 3 5 2-2 2.5c-2.612 3.845-2.313 6.957-2 11.5l-4 2 2.438.75C887 643 887 643 887.813 645.125L888 647c-3.734.879-7.168 1.09-11 1l-1 3h-10l-1-2a129 129 0 0 0-6-1l-2-1-1 2-.687-1.875c-1.736-2.81-3.19-3.181-6.313-4.125q-2.495-.524-5-1c-3.75-.875-3.75-.875-7-2l-1-3a70 70 0 0 0-4-1l-1-2-3-.937-3-1.063-1-3-1.875.625L820 630l-2-2v-3l-2.375-.25C813 624 813 624 811.813 622.063L811 620l-2-2h-2q-1.474-4.092-2.937-8.187l-.842-2.33c-2.588-7.264-3.715-12.002-1.221-19.483l-2-1h2l3-12h2l.938-2.875C809 569 809 569 810 567h2v-2l2-1 1-3h2v-2c4.47-4 4.47-4 7-4v-2c14.23-5 14.23-5 20-5" fill="currentColor"/><path d="m795 386 3 2h-2l2 4-2 2a252 252 0 0 0-3 7c-1 2-1 2-2 3l4 2c-.375 2.438-.375 2.438-1 5l-2 1 1 6h-2l-1 2-1 1 3 1c.207 3.72-.36 5.72-2 9l1 3-2 2c-.205 2.144-.205 2.144-.062 4.5.16 4.304.16 4.304-.938 6.5l2 1-2 2c.354 2.263.975 3.95 2 6l-2 1v3l2 2v2l-2 1 1 4h-2c.506 2.169 1 4 2 6h-2l2 5h-2l-1 2-1-1c-.2 3.716-.152 4.772 2 8l-2 3-2-2-2 2c-4.19 1.095-7.799 1.573-11.75-.312L767 490l-2.625-1c-3.784-1.593-5.795-4.438-8.187-7.687a369 369 0 0 0-4.91-6.543l-1.653-2.145-1.523-1.96C747 469 747 469 747 467l-3-1-.437-2.812c-.484-3.195-.484-3.195-1.563-6.188h2a853 853 0 0 0-.437-4.312l-.247-2.426c-.269-2.423-.269-2.423-1.316-5.262l2-1c.502-1.957.502-1.957.813-4.25.915-4.62 2.612-6.622 6.187-9.75l1.125-2.25C753 426 753 426 756 425v-2c2.436-2.575 4.995-4.995 7.563-7.437 2.553-2.527 2.553-2.527 4.5-5.75 1.979-2.873 2.92-3.405 5.937-4.813l.938-2.062L776 401c2.563-.625 2.563-.625 5-1l1-2 1.75-.75c2.305-1.28 3.26-2.34 4.875-4.375L791 390h2z" fill="currentColor"/><path d="m929.375 312.75 3.048-.029 2.85.013 2.545.007C940 313 940 313 943 315l-26 1c2.025 3.217 2.025 3.217 5 5l-3 6 4 3-3 2 .563 2.125c.491 3.23.061 5.685-.563 8.875-.332 3.003-.332 3.003 1.5 4.688L923 349l-2 1 1 5h-2l.75 3.188C921 362 921 362 919 364.75l-2 2.25 1 3c-.937 2.688-.937 2.688-2 5h5l1 3c-2.812 2.063-2.812 2.063-6 4l-3-1v2l2 1-3 2 1 6-2 1-1 3 2 1-3 1v-4h-2l-2 4h-2l-1 3-5 1-1 5-5 1-1 4 4-3 2 1-1.872 1.44c-8.748 6.921-16.49 14.694-24.316 22.623l-4.04 4.068A4610 4610 0 0 0 856 448l-3-1c1.375-2.5 1.375-2.5 3-5h2v-2l2.438-1.937c2.8-1.873 2.8-1.873 3.562-5.063l-2-1h2l1-2-1-1q.459-3.007 1-6v-3c.55-2.008.55-2.008 1.313-4.125l.738-2.133C868 412 868 412 871 411v-3l2-3 2 3c-.344-2.473-.344-2.473-1-5l-2-1 1-3 4 2 2-3 3 1v-8h2l1 3c2.382-5.508 2-8.375 0-14l2-2h4l-5-2v-2h2c.082-4.161-.018-7.947-1-12h4l-1-3h-2l-1 2c0-4.381 1.77-7.634 4.688-10.875L893 349l-1-3 5-2h-5l-2-4h-2c1-2 1-2 4-4l-4-2 2-5-4-1v-2h-2l1-2c3.517 0 4.371.824 7 3v-4h2c-.795-2.157-.795-2.157-2.81-2.68-3.824-.558-7.175.824-10.815 1.93l-2.352.66-2.25.668-2.049.607c-2.09.807-2.09.807-3.724 3.815v-2l-9 3v-2c22.193-9.403 44.302-14.076 68.375-14.25" fill="currentColor"/><path d="M879.625 554.313c16.885 9.399 32.113 14.559 51.438 15.812l3.779.262q4.578.315 9.158.613v1c-16.571.421-31.275-.207-47-6-.597 2.763-1 5.16-1 8v2l3 1-2 3 3-1-2 5a56.5 56.5 0 0 0 7-4l1 3 2-2h2l-1 3 2 2-1 3h-2v2l4 2-.625 2.125c-.539 4.13.792 7.21 2.625 10.875l-2 1c-.658 3.03-.658 3.03-1 6l4 3-3 2-2-1-1 2 4 5-3 2 2 3v4l2 2h-2l.625 2.25c.431 3.162-.063 4.06-1.625 6.75a69 69 0 0 0-1 4l3 1c-.687 1.938-.687 1.938-2 4-2.625.75-2.625.75-5 1 7.898 1.038 15.759 1.154 23.712 1.13 2.086-.005 4.172 0 6.259.007 8.38.003 16.68-.35 25.029-1.137l-2 4-10-1v2l-12-2v2q-2.844.039-5.687.063l-3.2.035c-2.848-.09-5.339-.498-8.113-1.098-3.707-.128-6.473-.176-10 1v-2l-3 1a202 202 0 0 1-7-1h-3v-2l-2.937.563L891 656l-1-1-3 1v-2l-7 1v-3h-4l-1-4 3.25-.437c2.667-.4 5.164-.839 7.75-1.563l-1-1v-2l-4-2c2-3 2-3 4-4l-.25-3.187c.285-4.35 1.274-5.745 4.25-8.813h-2v-2l-3 1c0-3.517.824-4.371 3-7l-2-1v-2h2v-2h-2c1-3 1-3 3-5l-1-3-2 1-.812-2.437L883 600l-3-1v-6l-4-1c1-2 1-2 2-3h-3c.875-3.875.875-3.875 2-5l-4-3-2 1v-2l-2-1 1.563-3.312c1.837-3.553 1.837-3.553.437-6.688a178 178 0 0 0-2-4h-3l1.063-2.312c1.26-2.736 1.26-2.736-.063-5.688-1.997-1.685-1.997-1.685-4-3l1-1-8-1v-4l-8 1-1 3-3-1v-3l-14 4v-2c19.02-7.276 32.058-5.737 49.625 4.313M910 614l1 2Z" fill="currentColor"/><path d="m815 366 1 2 3 1 2-1c1 3 1 3 0 6-.3 2.571-.507 5.143-.719 7.723C820 384 820 384 819 386l3 3h-2l-1 4 3 2-1 2-3 1-1 2h-2c-.692 1.847-.692 1.847-1 4l2 3c-.304 5.277-1.828 9.278-4 14-.064 1.332-.064 1.332 1.125 3.688 1.029 3.894.435 5.672-1.125 9.312h-3l1.125 2.313L811 439l-2 3 1 2-3 1 1 2h-2l-1 6h2c-.976 2.928-2.108 4.614-4 7l2 4 2-1 2-1 1 3-4 2 2 2 2 2h-2v2c-1.5 1.625-1.5 1.625-3 3l3 3-3 1-1 2 2 2-2 1 .313 2.188c-.441 3.964-2.356 5.277-5.313 7.812l-2 1v-2l-2.125 1c-3.135 1.09-5.58 1.153-8.875 1v-2h-2l-1 2-5-4c2.639-1.414 5.071-2.372 8-3l-3-6h2l-1-4 3 1v-2l.625-1.937c.676-2.364.676-2.364-1.625-5.063l2-3v-4l1-2-2-2c.438-2.062.438-2.062 1-4l-1-1c-.122-2.75-.203-5.241.512-7.914.705-3.013.457-5.89.328-8.965C788 436 788 436 790 433l-.5-2-.5-2 2-3v-4h-3c1-3 1-3 4-5l-.687-2.187c-.397-3.569.643-4.952 2.687-7.813l-2-2-2 1 1-6h2l.367-1.715.508-2.223.492-2.214C795 392 795 392 797 391l-2-4-2 5h-3l-2.5 3-2.5 3h-3l-1 3-2-1 2-3h2v-2l2.375-1.875c2.681-1.87 2.681-1.87 3.688-4.25 1.2-2.402 2.495-2.898 4.937-3.875v-2l3-1 1-3h2v-2a100 100 0 0 1 4-3c2.095-1.934 3.387-3.58 5-6h3zm-6 95 2 1Z" fill="currentColor"/><path d="M823 556h3l1 3c3.512 1.23 3.512 1.23 7 2l-.625 1.625c-.518 3.284.289 5.369 1.625 8.375l3 1c.143 8.571.143 8.571-1 12l4-1v3l-4 1 1.938 2.188c2.102 2.867 2.887 4.303 3.062 7.812-.937 2.813-.937 2.813-2 5l2 1c.875 1.813.875 1.813 1 4-1.937 2.25-1.937 2.25-4 4l4 4-1 2c-.04 2-.043 4 0 6h-3l-2 4-2-1c-2.074.248-2.074.248-4 1l-1 2h-2v2l2 2-5-1-1-3-1.875.625L820 630l-2-2v-3l-2.375-.25C813 624 813 624 811.813 622.063L811 620l-2-2h-2q-1.474-4.092-2.937-8.187l-.842-2.33c-2.588-7.264-3.715-12.002-1.221-19.483l-2-1h2l3-12h2l.938-2.875C809 569 809 569 810 567h2v-2c1.645-1.148 1.645-1.148 3.813-2.375 3.195-1.896 5.038-3.572 7.187-6.625" fill="currentColor"/><path d="M769 412h4c-1.75 4.875-1.75 4.875-4 6l2 1c1.004 4.656.95 8.36 0 13v3l-.062 2.938c-.065 2.926-.065 2.926.625 5.125.568 2.518-.036 4.436-.563 6.937l1 2c-.937 2.625-.937 2.625-2 5h2l-1 3 2 2-3 2 2 5 1-2 .875 2.375c.974 2.722.974 2.722 3.125 4.625v1l2 1-2 5h3l2-2c.75 1.75.75 1.75 1 4-1.937 2.25-1.937 2.25-4 4l-4-2c-1.106 2.39-1.106 2.39-2 5l1 2-3 1a83 83 0 0 1-4-3l-2.562-1c-3.837-1.574-5.835-4.407-8.25-7.687a369 369 0 0 0-4.91-6.543l-1.653-2.145-1.523-1.96C747 469 747 469 747 467l-3-1-.437-2.812c-.484-3.195-.484-3.195-1.563-6.188h2a853 853 0 0 0-.437-4.312l-.247-2.426c-.269-2.423-.269-2.423-1.316-5.262l2-1c.687-2.118.687-2.118 1.125-4.562l.508-2.504L746 435l2.375-.25c2.722-.447 2.722-.447 3.625-2.5l1-2.25a130 130 0 0 1 5-5 832 832 0 0 0 4.688-4.562l2.324-2.254c1.83-2.011 2.934-3.698 3.988-6.184" fill="currentColor"/><path d="m754 484 2 3c-3.325-1.18-6.23-2.707-9.25-4.5-10.63-5.907-23.573-6.162-35.187-3-1.528.48-3.052.972-4.563 1.5l2 3c-1.444 6.444-1.444 6.444-3 8l2 2v2h-2c-1.211 1.942-1.211 1.942-.687 4.063.505 2.135.505 2.135 2.687 2.937-3 1-3 1-5 1l-1 3c-1.937-.75-1.937-.75-4-2-.75-2.125-.75-2.125-1-4h3l-2-1 .938-2.625c2.05-5.725 2.05-5.725 1.062-11.375l2-1 .813-2.422C704 480 704 480 706.25 478.672c16.833-5.643 32.708-4.334 47.75 5.328" fill="currentColor"/><path d="M884 557c-3 1-3 1-5.742-.363l-3.133-1.95c-6.829-4.218-11.354-6-19.437-5.812l-2.245.027c-1.814.024-3.629.06-5.443.098l-1 3-3-1v-3l-14 4v-2c21.434-8.2 34.932-4.284 54 7" fill="currentColor"/><path d="m961 654-2 4-10-1v2l-12-2v2q-2.844.039-5.687.063l-3.2.035c-2.848-.09-5.339-.498-8.113-1.098-3.707-.128-6.473-.176-10 1v-2l-3 1-2-2c9.072-1.08 18.071-1.088 27.188-1 9.615.092 19.293-1.297 28.812-1" fill="currentColor"/><path d="m834 627 4 2h-2l-1 6 2.438.75c2.804.984 5.377 2.063 8.062 3.313 3.498 1.58 6.63 2.654 10.5 2.937l2-1 .75 1.938c1.066 2.25 1.066 2.25 3.375 2.812L864 646l-1 3-6-2-1 2-.687-1.875c-1.736-2.81-3.19-3.181-6.313-4.125q-2.495-.524-5-1c-3.75-.875-3.75-.875-7-2l-1-3c-2.015-.733-2.015-.733-4-1-.25-5.625-.25-5.625 2-9" fill="currentColor"/><path d="M733 569h3c-.47 4.228-3.103 6.2-6 9a1712 1712 0 0 0-3.77 3.77L715 593l-2-3h3l.375-1.75c.631-2.273 1.514-4.175 2.625-6.25l4 1-1-4h2l-1-3h2l1-2 1 3h2v-3l-2-1 6-2z" fill="currentColor"/><path d="M634 317c7.28.535 13.664 2.218 20.563 4.563l3.178 1.069c10.71 3.704 20.597 8.454 30.259 14.368l-2 1c-2.211-.88-2.211-.88-4.945-2.273l-3.016-1.5a2248 2248 0 0 1-6.258-3.18c-5.783-2.87-10.364-4.519-16.781-5.047l-1-2c-2.042-.947-2.042-.947-4.437-1.687l-2.434-.825c-2.167-.734-2.167-.734-4.129.512-2.164-.777-2.164-.777-4.625-1.937l-2.477-1.153L634 318zm20 9 1 2-2-1z" fill="currentColor"/><path d="M466 601h2v2l3 1v2h2c1.508 1.531 1.508 1.531 3.125 3.5l1.633 1.969L479 613l1-3h3v-2l3 1-1.062 1.75c-1.087 2.608-.869 3.644.062 6.25h2l-1 5-1-2-3-1c-1.375-1.25-1.375-1.25-3-3l-2.562-2.437c-2.09-2.198-3.31-3.796-4.438-6.563h-2v-2l-3-1zm19 12 3 1h-3z" fill="currentColor"/><path d="m929.375 312.75 3.044-.028 2.854.012 2.545.007C940 313 940 313 943 315l-2.766.076q-5.103.144-10.204.296-2.205.065-4.408.125-3.177.088-6.352.187l-3.857.11c-2.934.177-5.59.395-8.413 1.206l-1 2-8-2c2.74-2.74 5.493-2.714 9.188-3.125l2.219-.253c6.65-.673 13.287-.837 19.968-.872" fill="currentColor"/><path d="M520 453c1.289 3.867.211 6.421-.875 10.188C515.777 475.64 515.802 488.15 516 501h-1c-2.006-14.04-3.022-32.767 3-46h2z" fill="currentColor"/><path d="m515 332 2 1c-3.894 2.963-7.64 5.393-12.062 7.5-4.205 2.042-7.466 4.33-10.938 7.5a1201 1201 0 0 1-4.187 3.688l-1.981 1.761C486 355 486 355 483 357l-2-2c1.779-3.558 5.362-4.787 9-6v-2c2.02-1.48 2.02-1.48 4.813-3.187l3.019-1.864L501 340q4.348-2.803 8.688-5.617C512 333 512 333 515 332" fill="currentColor"/><path d="m620 560 2 1c-7.535 6.24-19.499 8.588-29 10-2.981-.422-5.357-1.584-8-3l3.41-.262c11.054-.969 21.545-2.716 31.59-7.738" fill="currentColor"/><path d="m849 448 3 2c-1.536 3.68-3.782 5.988-6.625 8.75l-2.477 2.422L841 463l-2-1 2-3-1-3h2l-1-3 2.875-.25c3.23-.4 3.23-.4 4.5-2.812z" fill="currentColor"/><path d="m894 409 2 1-2.09 1.652c-5.76 4.623-11.053 9.322-16.133 14.696C876 428 876 428 874 428v-2h2v-2h2l.375-1.75c.673-2.424 1.176-4.18 2.625-6.25 1.99-.694 3.993-1.356 6-2 2.447-1.545 4.692-3.246 7-5" fill="currentColor"/><path d="M767 412c.82 1.66.82 1.66 1 4a49 49 0 0 1-5.125 5.438l-1.477 1.408q-1.465 1.397-2.942 2.782c-4.253 3.778-4.253 3.778-7.456 8.372l-2-1 1.438-2.375c.901-1.514 1.774-3.049 2.562-4.625l3-1v-2a140 140 0 0 1 5-5l2.75-2.75z" fill="currentColor"/><path d="M671 626c2 1 2 1 3 3l4-3 2 1-2.375 1.875c-2.593 2.024-2.593 2.024-4.625 4.125q-2.286 1.359-4.625 2.625l-2.477 1.352L664 638v-2l1.5-1.437C667.346 633 667.346 633 667 630l1-3z" fill="currentColor"/><path d="m688 493 2 1c-5.055 6.309-9.984 12.355-16.238 17.531-2.415 2.013-4.575 4.214-6.762 6.469l-2-1c3.234-4.116 6.542-7.449 10.645-10.703L677 505v-2l4-2v-2h3v-2a91 91 0 0 1 4-4" fill="currentColor"/><path d="m658 524 2 1-1.238 1.222q-2.79 2.761-5.574 5.528l-1.948 1.922-1.885 1.875-1.73 1.714c-1.704 1.748-1.704 1.748-3.21 3.955L643 543h-2v2l-5 2 2-4h2v-2h2v-2c1.61-1.55 1.61-1.55 3.75-3.312 3.167-2.682 5.698-5.407 8.25-8.688 2.25-1.812 2.25-1.812 4-3" fill="currentColor"/><path d="m715 427 2 1c-3.131 3.733-5.246 4.38-10 5l-2 2-1-1-2 2-3-2v2h-4l-2 1-2-2c2.648-2.648 4.374-2.452 8.063-2.875 5.296-.722 9.509-1.94 14.23-4.418z" fill="currentColor"/><path d="m601.313 397.875 3.033-.012 2.892.004 2.627.004C612 398 612 398 614 399v2l-3.25-.5c-9.814-1.192-19.081-.42-28.75 1.5l1-3c6.123-1.079 12.105-1.15 18.313-1.125" fill="currentColor"/><path d="M867 435c-1.536 3.68-3.782 5.988-6.625 8.75l-2.477 2.422L856 448l-3-1c1.375-2.5 1.375-2.5 3-5h2v-2c5.357-5 5.357-5 9-5" fill="currentColor"/><path d="M739 386h1c.856 12.29-2.742 21.202-10 31l-2-1c1.312-2.926 2.753-4.753 5-7 1.75-2.916 2.443-5.658 3-9h2z" fill="currentColor"/><path d="M576 655h30v1q-4.28.546-8.562 1.063l-2.424.314c-4.897.58-9.124.561-14.014-.377l-2.937-.562L576 656z" fill="currentColor"/><path d="M641 649q-1.874.722-3.75 1.438l-2.11.808C631.525 652.52 628.898 653 625 653v2l-12 1-1-2 1.972-.443q4.42-.995 8.84-1.995l3.104-.697 2.979-.674 2.745-.618c6.289-1.526 6.289-1.526 9.36-.573" fill="currentColor"/><path d="m847 641 1.898.254 2.477.308 2.46.317c2.214.303 2.214.303 4.165-.879l.75 1.938c1.066 2.25 1.066 2.25 3.375 2.812L864 646l-1 3-6-2-1 2-.562-1.812c-2.16-3.288-4.79-3.837-8.438-5.188z" fill="currentColor"/><path d="M1022 628h5l-1 4h-2l-1 2a175 175 0 0 1-5 4l-1-1-2 3-3-1v-2l1.68-.7c4.752-2.046 4.752-2.046 7.82-6.05z" fill="currentColor"/><path d="m883 647 1 3-4 1 8 1c-2.639 1.414-5.071 2.372-8 3v-3h-4l-1-4c2.709-1.354 5.01-1.065 8-1" fill="currentColor"/><path d="m697 604 3 3a707 707 0 0 1-2.875 3.438l-1.617 1.933C694 614 694 614 692 615l-1-5 3-2-1-2z" fill="currentColor"/><path d="m994 543 2 3-2.75 2.188c-2.18 1.787-3.56 3.238-5.25 5.562-2.532 2.848-4.278 2.996-8 3.25 4.625-4.875 4.625-4.875 8-6v-2h2l1-4h3z" fill="currentColor"/><path d="m776 401 6 1c-.562 2.375-.562 2.375-2 5-3.375 1.188-3.375 1.188-7 2-1.354.625-2.7 1.272-4 2 .25-1.875.25-1.875 1-4q1.988-1.026 4-2c1.268-2.034 1.268-2.034 2-4" fill="currentColor"/><path d="m793 386 2 1-2 5h-3l-2.5 3-2.5 3h-3l-1 3-2-1 2-3h2v-2l2.375-1.875c2.56-2.073 3.248-3.272 4.625-6.125z" fill="currentColor"/><path d="M803 584h1v20l-4-4 1-2-.562-2.312c-.523-3.21.163-4.807 1.562-7.688l-2-1h2z" fill="currentColor"/><path d="M553 648h2l-1 2zm0 2 1 2c2.356.468 2.356.468 5.063.625l2.785.227L564 653v2q-2.687.039-5.375.063l-3.023.035C553 655 553 655 551 654v-2l-2-1z" fill="currentColor"/><path d="M635 547c1 3 1 3 0 6h-2l-1 6-1.312-1.5c-1.685-1.832-1.685-1.832-4.688-1.5z" fill="currentColor"/><path d="m902 650 1.688 1.938c2.533 2.259 3.995 2.693 7.312 3.062v1l-14 1-1-3h5z" fill="currentColor"/><path d="M749 471c3.39 1.433 5.278 3.188 7.625 6 1.748 2.077 3.455 4.08 5.375 6-.375 2.125-.375 2.125-1 4-1.854-1.854-3.321-3.707-4.875-5.812a215 215 0 0 0-5.5-7.125C749 472 749 472 749 471" fill="currentColor"/><path d="m807 371 2 1a745 745 0 0 1-5.191 5.95 379 379 0 0 0-3.996 4.613C798 384 798 384 795.75 383.75L794 383l3-1 1-3h2v-2a100 100 0 0 1 4-3 100 100 0 0 0 3-3" fill="currentColor"/><path d="m961 654-2 4-10-1v2l-3-1 2-3c4.377-.79 8.55-1.14 13-1" fill="currentColor"/><path d="m1008 520 3 2c-1.77 4.766-4.188 8.782-7 13l-2-1 1-3h2l1-6h2z" fill="currentColor"/><path d="M714 356c3.424 1.237 6.401 2.401 9 5 .25 2.688.25 2.688 0 5-2 0-2 0-4.5-2.187-2.34-2.632-3.458-4.498-4.5-7.813" fill="currentColor"/><path d="m808 611 4 4 2-1v2l2 1c-1.375 1.5-1.375 1.5-3 3h-2l-2-2h-2c-.043-2-.04-4 0-6z" fill="currentColor"/><path d="m564 563 1.836.367 2.539.508 8.516 1.703 2.734.547L584 567l-1 2-11-1v-2l-4 1v-2z" fill="currentColor"/><path d="m827 552 2 1-2.687 1.625c-2.473 1.62-4.189 3.294-6 5.625L818 563h-3v-2h2v-2c4.47-4 4.47-4 7-4v-2z" fill="currentColor"/><path d="M698 484c1 3 1 3-.312 5.688L696 492h-2l-1 2-4-2c2.853-2.932 5.65-5.643 9-8" fill="currentColor"/><path d="M1040 621v3l-1.937.313L1036 625l-1 3-3-1-1-3c3.072-2.73 4.904-3.341 9-3" fill="currentColor"/><path d="m782 489 3 1v2l7 1v1h-8l-1 2-5-4 4-2z" fill="currentColor"/><path d="M535 647h7v2h2l1-2-1 5-2-1-1 1-3-2-3-1z" fill="currentColor"/><path d="m809 488 3 1c-3.061 2.624-3.732 3-8 3v3h-2v-2l-4-1 2.152-.621 2.785-.817 2.778-.808c2.225-.544 2.225-.544 3.285-1.754" fill="currentColor"/><path d="M818 359h2c-2.008 4.93-5.641 8.094-10 11 2.705-6.852 2.705-6.852 7-9z" fill="currentColor"/><path d="m474 360 3 2a307 307 0 0 1-2.812 4l-1.583 2.25L471 370h-3c1.25-3.653 1.671-4.78 5-7z" fill="currentColor"/><path d="M719 584h2c-.176 2.38-.697 3.702-2.402 5.379-1.504 1.242-3.05 2.435-4.598 3.621l-1-3h3l.375-1.875C717 586 717 586 719 584" fill="currentColor"/><path d="M883 419c-1.556 3.82-3.956 6.26-7 9h-2v-2h2v-2h2l.375-1.937L879 420c2-1 2-1 4-1" fill="currentColor"/><path d="M563 408c-2.353 2.724-4.625 3.814-8 5v2l-3-1c1.634-3.45 2.518-4.783 6.063-6.375C561 407 561 407 563 408" fill="currentColor"/><path d="M960 404c8.193.35 8.193.35 11.563 3.063L973 409l-2 1v-2h-6v-3l-3 1z" fill="currentColor"/><path d="M828 628h6l-1 6-5-2z" fill="currentColor"/><path d="M501 626v2l3 1v3c-3.576 0-5.053-1.088-8-3 1.288-2.575 2.14-3 5-3" fill="currentColor"/><path d="M597 568c-1.75 1.563-1.75 1.563-4 3-2.98-.28-5.38-1.597-8-3 4.256-1.16 7.684-.762 12 0" fill="cureentColor"/><path d="M428 443h1c.143 7.429.143 7.429-1 11l-3-1c0-3 0-3 2-6l-1-2h2z" fill="currentColor"/><path d="m1021 635-3 3-1-1-2 3-3-1v-2c5.625-3.125 5.625-3.125 9-2" fill="currentColor"/><path d="m551 647 1 2 2 1-7 2-1-3z" fill="currentColor"/><path d="m594 400-12 2 1-3c6.5-1.25 6.5-1.25 11 1" fill="currentColor"/><path d="m878 651 10 1c-2.923 1.461-4.925 2.341-8 3v-3z" fill="currentColor"/><path d="M698 482h5l-1 4h-2v2l-2-1z" fill="currentColor"/><path d="M1013 456c3.006 3.006 2.596 5.824 3 10l-3-3 1-3-2-1z" fill="currentColor"/><path d="m688 337 7 4c-2.606.93-3.642 1.15-6.25.063L687 340z" fill="currentColor"/><path d="M890 317h7l-1 4-6-1z" fill="currentColor"/><path d="m611 396 5 1v2l4 1h-8z" fill="currentColor"/><path d="M714 356c3.653 1.25 4.78 1.671 7 5h-5z" fill="currentColor"/><path d="M1045 618v3l-2-1z" fill="currentColor"/><path d="m1066 377 4 1-3 1z" fill="currentColor"/><path d="m948 1013 2 1-2 1z" fill="currentColor"/><path d="m948 925 2 1-2 1z" fill="currentColor"/><path d="m948 885 2 1-2 1z" fill="currentColor"/><path d="m1044 862 2 1-2 1zM747 432l2 1-2 1z" fill="currentColor"/><path d="m972 316 2 2h-2z" fill="currentColor"/><path d="m965 315 3 1ZM947 312l3 1Z" fill="currentColor"/><path d="m948 1021 2 1ZM948 997l2 1Z" fill="currentColor"/><path d="m1090 979 2 1ZM1090 955l2 1ZM1090 931l2 1Z" fill="currentColor"/><path d="m948 853 2 1Z" fill="currentColor"/><path d="m1090 843 2 1ZM1042 829l2 1Z" fill="currentColor"/><path d="m948 821 2 1Z" fill="currentColor"/><path d="m948 805 2 1ZM948 797l2 1ZM1090 795l2 1ZM948 781l2 1ZM948 717l2 1ZM1090 699l2 1Z" fill="currentColor"/><path d="m948 661 2 1Z" fill="currentColor"/><path d="m950 658 2 1Z" fill="currentColor"/><path d="m1040 622 2 1Z" fill="currentColor"/><path d="m1090 563 2 1ZM962 561l2 1Z" fill="currentColor"/><path d="m892 560 2 1Z" fill="currentColor"/><path d="m861 544 2 1Z" fill="currentColor"/><path d="m1102 527 2 1ZM751 481l2 1ZM992 427l2 1ZM655 417l2 1Z" fill="currentColor"/><path d="m1090 411 2 1ZM957 404l2 1ZM842 336l2 1ZM513 331l2 1ZM954 313l2 1ZM636 313l2 1ZM948 165l2 1ZM1090 59l2 1ZM1090 43l2 1Z" fill="currentColor"/><path d="m948 37 2 1ZM1090 35l2 1ZM1090 27l2 1ZM948 21l2 1ZM948 13l2 1Z" fill="currentColor"/></svg>